<svg width="180" height="80" viewBox="0 0 180 80" fill="none" xmlns="http://www.w3.org/2000/svg">
<path d="M94.0348 60.348L93.8783 60.6205C127.139 53.7394 164.408 57.7643 180 60.0317L153.011 45.4873C137.325 46.8407 114.595 49.0904 94.0348 60.348Z" fill="#4C3D3D"/>
<path d="M140.362 30.9958L139.767 31.198C128.079 35.0911 112.549 40.2673 98.0216 53.5814C97.4511 54.4543 96.9049 55.3419 96.3831 56.2442C117.068 46.1027 139.173 44.1956 154.191 42.895C162.738 42.1656 169.731 41.5592 171.776 39.784L140.362 30.9958Z" fill="#C07F00"/>
<path d="M158.585 16.9875H137.075C134.539 19.0791 131.7 21.0477 128.663 23.1392C121.18 28.333 112.414 34.4144 103.751 45.4611C116.275 36.3742 128.799 32.1822 138.703 28.8867C149.286 25.3978 156.518 22.9898 158.585 16.9875Z" fill="#FFD95A"/>
<path d="M92.8035 51.4019V56.8417C104.284 36.9366 116.682 28.3154 126.816 21.2937C135.812 15.0541 142.471 10.4403 145.101 0.395508L108.865 11.6267C107.658 18.3387 104.638 24.7277 100.036 30.3015C96.1223 35.4074 92.8035 39.8191 92.8035 51.4019Z" fill="#FFA259"/>
<path d="M85.9652 59.8695L86.1218 60.142C52.8608 53.2521 15.5922 57.2858 0.00012207 59.5532L27.0097 45C42.6957 46.3622 65.4263 48.6119 85.9652 59.8695Z" fill="#4C3D3D"/>
<path d="M40.7151 30.6003L41.31 30.7937C52.9989 34.6956 68.5283 39.8718 83.0559 53.1771C83.609 54.0559 84.1621 54.9347 84.7153 55.875C64.0093 45.6984 41.9362 43.8265 26.8868 42.5258C18.3394 41.7964 11.3469 41.19 9.30139 39.4148L40.7151 30.6003Z" fill="#C07F00"/>
<path d="M22.4929 16.592H44.0025C46.5385 18.6836 49.3772 20.6434 52.4143 22.7437C59.8972 27.9727 68.6638 34.0541 77.3365 45.1008C64.8128 36.0314 52.289 31.8219 42.3744 28.5263C31.7918 25.0023 24.5593 22.5856 22.4929 16.592Z" fill="#FFD95A"/>
<path d="M88.274 50.9712V56.4111C76.8148 36.5323 64.3954 27.9199 54.2616 20.8894C45.2654 14.6586 38.6174 10.0448 35.9769 0L72.2123 11.2312C73.4237 17.934 76.4442 24.3136 81.0416 29.8797C84.9239 35.0119 88.274 39.4236 88.274 50.9712Z" fill="#FFA259"/>
<path d="M122.523 76.3601L125.981 66.1401H128.501L131.945 76.3601H129.425L128.823 74.1481H125.589L125.001 76.3601H122.523ZM126.079 72.3421H128.347L127.227 68.1981H127.199L126.079 72.3421Z" fill="#4C3D3D"/>
<path d="M115.636 66.1401V70.5221H115.664L118.758 66.1401H121.516L117.876 71.0401L121.656 76.3601H118.898L115.664 71.5581H115.636V76.3601H113.256V66.1401H115.636Z" fill="#4C3D3D"/>
<path d="M107.105 68.0581V70.1441H110.983V71.9501H107.105V74.4421H111.263V76.3601H104.725V66.1401H111.263V68.0581H107.105Z" fill="#4C3D3D"/>
<path d="M102.952 66.1401V68.1141H100.11V76.3601H97.6737V68.1141H94.8317V66.1401H102.952Z" fill="#4C3D3D"/>
<path d="M85.2876 67.414C86.2302 66.4713 87.4902 66 89.0676 66C90.6449 66 91.9002 66.4713 92.8336 67.414C93.7762 68.3567 94.2476 69.6353 94.2476 71.25C94.2476 72.8647 93.7762 74.1433 92.8336 75.086C91.9002 76.0287 90.6449 76.5 89.0676 76.5C87.4902 76.5 86.2302 76.0287 85.2876 75.086C84.3542 74.1433 83.8876 72.8647 83.8876 71.25C83.8876 69.6353 84.3542 68.3567 85.2876 67.414ZM87.0376 73.7C87.5229 74.26 88.1996 74.54 89.0676 74.54C89.9356 74.54 90.6076 74.26 91.0836 73.7C91.5689 73.14 91.8116 72.3233 91.8116 71.25C91.8116 70.1767 91.5689 69.36 91.0836 68.8C90.6076 68.24 89.9356 67.96 89.0676 67.96C88.1996 67.96 87.5229 68.24 87.0376 68.8C86.5616 69.36 86.3236 70.1767 86.3236 71.25C86.3236 72.3233 86.5616 73.14 87.0376 73.7Z" fill="#4C3D3D"/>
<path d="M79.5596 76.3601V66.1401H82.1776V76.3601H79.5596Z" fill="#4C3D3D"/>
<path d="M73.2547 66.1401V74.3861H77.5667V76.3601H70.8047V66.1401H73.2547Z" fill="#4C3D3D"/>
<path d="M64.3243 70.186H64.7863C66.149 70.186 66.8303 69.78 66.8303 68.968C66.8303 68.1933 66.2563 67.806 65.1083 67.806C64.819 67.806 64.5577 67.834 64.3243 67.89V70.186ZM64.3243 71.894V74.61C64.595 74.666 64.875 74.694 65.1643 74.694C65.827 74.694 66.3123 74.5727 66.6203 74.33C66.9283 74.078 67.0823 73.6953 67.0823 73.182C67.0823 72.3233 66.3777 71.894 64.9683 71.894H64.3243ZM69.3083 73.42C69.3083 74.4653 68.9677 75.24 68.2863 75.744C67.605 76.248 66.5317 76.5 65.0663 76.5C63.9837 76.5 62.957 76.43 61.9863 76.29V66.21C62.9103 66.07 63.8903 66 64.9263 66C67.633 66 68.9863 66.8727 68.9863 68.618C68.9863 69.206 68.795 69.71 68.4123 70.13C68.0297 70.55 67.521 70.8113 66.8863 70.914V70.942C67.633 71.0353 68.221 71.3107 68.6503 71.768C69.089 72.2253 69.3083 72.776 69.3083 73.42Z" fill="#4C3D3D"/>
<path d="M57.0283 76.3601V66.1401H59.6463V76.3601H57.0283Z" fill="#4C3D3D"/>
<path d="M50.338 70.186H50.8C52.1627 70.186 52.844 69.78 52.844 68.968C52.844 68.1933 52.27 67.806 51.122 67.806C50.8327 67.806 50.5713 67.834 50.338 67.89V70.186ZM50.338 71.894V74.61C50.6087 74.666 50.8887 74.694 51.178 74.694C51.8407 74.694 52.326 74.5727 52.634 74.33C52.942 74.078 53.096 73.6953 53.096 73.182C53.096 72.3233 52.3913 71.894 50.982 71.894H50.338ZM55.322 73.42C55.322 74.4653 54.9813 75.24 54.3 75.744C53.6187 76.248 52.5453 76.5 51.08 76.5C49.9973 76.5 48.9707 76.43 48 76.29V66.21C48.924 66.07 49.904 66 50.94 66C53.6467 66 55 66.8727 55 68.618C55 69.206 54.8087 69.71 54.426 70.13C54.0433 70.55 53.5347 70.8113 52.9 70.914V70.942C53.6467 71.0353 54.2347 71.3107 54.664 71.768C55.1027 72.2253 55.322 72.776 55.322 73.42Z" fill="#4C3D3D"/>
</svg>
