<svg width="48" height="48" viewBox="0 0 48 48" fill="none" xmlns="http://www.w3.org/2000/svg">
<path d="M6 15.059V19H11.628L6 15.059ZM10.664 37H19V31.163L10.664 37ZM29 31.164V37H37.335L29 31.164ZM6 29V32.941L11.63 29H6ZM37.337 11H29V16.837L37.337 11ZM42 32.942V29H36.369L42 32.942ZM42 19V15.059L36.371 19H42ZM19 11H10.664L19 16.837V11Z" fill="#00247D"/>
<path d="M31.1402 29L40.8522 35.801C41.3265 35.3124 41.6674 34.7101 41.8422 34.052L34.6272 29H31.1402ZM19.0002 29H16.8592L7.14823 35.8C7.66923 36.33 8.33723 36.709 9.08623 36.885L19.0002 29.943V29ZM29.0002 19H31.1412L40.8522 12.2C40.3223 11.6623 39.6506 11.286 38.9152 11.115L29.0002 18.057V19ZM16.8592 19L7.14823 12.2C6.67418 12.689 6.33304 13.291 6.15723 13.949L13.3722 19H16.8592Z" fill="#CF1B2B"/>
<path d="M42 27H27V37H29V31.164L37.335 37H38C38.5313 37.0001 39.0572 36.8941 39.5469 36.6882C40.0367 36.4823 40.4804 36.1807 40.852 35.801L31.14 29H34.627L41.842 34.052C41.935 33.715 42 33.366 42 33V32.942L36.369 29H42V27ZM6 27V29H11.63L6 32.941V33C6 34.091 6.439 35.078 7.148 35.8L16.859 29H19V29.943L9.086 36.884C9.38 36.954 9.684 37 10 37H10.664L19 31.163V37H21V27H6ZM42 15C42.0006 13.952 41.5881 12.946 40.852 12.2L31.141 19H29V18.057L38.915 11.115C38.6155 11.0415 38.3084 11.0029 38 11H37.337L29 16.837V11H27V21H42V19H36.371L42 15.059V15ZM19 11V16.837L10.664 11H10C9.46862 10.9998 8.94257 11.1058 8.45278 11.3119C7.96299 11.518 7.51936 11.8199 7.148 12.2L16.859 19H13.372L6.157 13.949C6.05778 14.2907 6.00497 14.6442 6 15V15.059L11.628 19H6V21H21V11H19Z" fill="#EEEEEE"/>
<path d="M27 21V11H21V21H6V27H21V37H27V27H42V21H27Z" fill="#CF1B2B"/>
</svg>
