<svg width="19" height="18" viewBox="0 0 19 18" fill="none" xmlns="http://www.w3.org/2000/svg">
<rect x="1" y="0.5" width="17" height="17" rx="8.5" stroke="black"/>
<path d="M9.98801 13.377C9.09201 13.377 8.29201 13.1903 7.58801 12.817C6.89468 12.433 6.35068 11.9103 5.95601 11.249C5.56135 10.5877 5.36401 9.83567 5.36401 8.993C5.36401 8.13967 5.56135 7.38767 5.95601 6.737C6.35068 6.07567 6.89468 5.55833 7.58801 5.185C8.29201 4.81167 9.09201 4.625 9.98801 4.625C10.82 4.625 11.5507 4.79567 12.18 5.137C12.82 5.46767 13.3053 5.95833 13.636 6.609L12.1 7.505C11.844 7.09967 11.5293 6.801 11.156 6.609C10.7933 6.417 10.3987 6.321 9.97201 6.321C9.48135 6.321 9.03868 6.42767 8.64401 6.641C8.24935 6.85433 7.94001 7.16367 7.71601 7.569C7.49201 7.96367 7.38001 8.43833 7.38001 8.993C7.38001 9.54767 7.49201 10.0277 7.71601 10.433C7.94001 10.8277 8.24935 11.1317 8.64401 11.345C9.03868 11.5583 9.48135 11.665 9.97201 11.665C10.3987 11.665 10.7933 11.569 11.156 11.377C11.5293 11.185 11.844 10.8863 12.1 10.481L13.636 11.377C13.3053 12.017 12.82 12.513 12.18 12.865C11.5507 13.2063 10.82 13.377 9.98801 13.377Z" fill="black"/>
</svg>
