<svg width="33" height="32" viewBox="0 0 33 32" fill="none" xmlns="http://www.w3.org/2000/svg">
<rect x="0.5" width="32" height="32" rx="16" fill="white"/>
<rect x="0.75" y="0.25" width="31.5" height="31.5" rx="15.75" stroke="#E9E9E9" stroke-opacity="0.54" stroke-width="0.5"/>
<path d="M29.2471 13.4539H28.2V13.4H16.5V18.6H23.847C22.7751 21.627 19.8949 23.8 16.5 23.8C12.1924 23.8 8.7 20.3075 8.7 16C8.7 11.6924 12.1924 8.2 16.5 8.2C18.4883 8.2 20.2973 8.9501 21.6747 10.1753L25.3517 6.4983C23.0299 4.33445 19.9242 3 16.5 3C9.32075 3 3.5 8.82075 3.5 16C3.5 23.1792 9.32075 29 16.5 29C23.6792 29 29.5 23.1792 29.5 16C29.5 15.1283 29.4103 14.2775 29.2471 13.4539Z" fill="#FFC107"/>
<path d="M4.99805 9.94915L9.2692 13.0815C10.4249 10.2202 13.2238 8.2 16.4991 8.2C18.4875 8.2 20.2964 8.9501 21.6738 10.1753L25.3508 6.4983C23.029 4.33445 19.9233 3 16.4991 3C11.5058 3 7.17555 5.81905 4.99805 9.94915Z" fill="#FF3D00"/>
<path d="M16.499 28.9997C19.8569 28.9997 22.908 27.7146 25.2149 25.6249L21.1914 22.2202C19.8862 23.2088 18.2638 23.7997 16.499 23.7997C13.1177 23.7997 10.2467 21.6436 9.16508 18.6348L4.92578 21.901C7.07728 26.1111 11.4466 28.9997 16.499 28.9997Z" fill="#4CAF50"/>
<path d="M29.2471 13.4543H28.2V13.4004H16.5V18.6004H23.847C23.3322 20.0544 22.3968 21.3083 21.1904 22.2215C21.191 22.2209 21.1917 22.2209 21.1923 22.2202L25.2158 25.6249C24.9311 25.8836 29.5 22.5004 29.5 16.0004C29.5 15.1287 29.4103 14.2779 29.2471 13.4543Z" fill="#1976D2"/>
</svg>
