<svg width="180" height="80" viewBox="0 0 180 80" fill="none" xmlns="http://www.w3.org/2000/svg">
<path d="M94.0345 60.3481L93.8779 60.6206C127.139 53.7395 164.408 57.7644 180 60.0318L153.011 45.4874C137.325 46.8408 114.594 49.0905 94.0345 60.3481Z" fill="#4C3D3D"/>
<path d="M140.362 30.9958L139.767 31.1979C128.078 35.0911 112.549 40.2673 98.0213 53.5813C97.4508 54.4543 96.9046 55.3419 96.3828 56.2441C117.068 46.1026 139.172 44.1956 154.19 42.8949C162.738 42.1655 169.73 41.5591 171.776 39.7839L140.362 30.9958Z" fill="#C07F00"/>
<path d="M158.584 16.9875H137.075C134.539 19.0791 131.7 21.0476 128.663 23.1392C121.18 28.333 112.413 34.4144 103.751 45.4611C116.275 36.3741 128.798 32.1822 138.703 28.8866C149.285 25.3977 156.518 22.9898 158.584 16.9875Z" fill="#FFD95A"/>
<path d="M92.8032 51.4019V56.8417C104.283 36.9366 116.682 28.3154 126.816 21.2937C135.812 15.0541 142.47 10.4403 145.1 0.395508L108.865 11.6267C107.658 18.3387 104.637 24.7277 100.036 30.3015C96.122 35.4074 92.8032 39.8191 92.8032 51.4019Z" fill="#FFA259"/>
<path d="M85.9651 59.8695L86.1217 60.142C52.8607 53.2521 15.5921 57.2858 0 59.5532L27.0096 45C42.6956 46.3622 65.4262 48.6119 85.9651 59.8695Z" fill="#4C3D3D"/>
<path d="M40.715 30.6003L41.3099 30.7936C52.9987 34.6956 68.5282 39.8718 83.0558 53.177C83.6089 54.0558 84.162 54.9346 84.7151 55.875C64.0092 45.6983 41.9361 43.8264 26.8867 42.5258C18.3392 41.7964 11.3468 41.19 9.30127 39.4148L40.715 30.6003Z" fill="#C07F00"/>
<path d="M22.4927 16.592H44.0022C46.5383 18.6836 49.377 20.6433 52.414 22.7437C59.897 27.9726 68.6636 34.054 77.3363 45.1007C64.8125 36.0313 52.2888 31.8218 42.3741 28.5263C31.7916 25.0022 24.5591 22.5855 22.4927 16.592Z" fill="#FFD95A"/>
<path d="M88.2737 50.9712V56.4111C76.8144 36.5323 64.395 27.9199 54.2612 20.8894C45.265 14.6586 38.617 10.0448 35.9766 0L72.212 11.2312C73.4234 17.934 76.4438 24.3136 81.0412 29.8797C84.9236 35.0119 88.2737 39.4236 88.2737 50.9712Z" fill="#FFA259"/>
<path d="M122.522 76.36L125.98 66.14H128.5L131.944 76.36H129.424L128.822 74.148H125.588L125 76.36H122.522ZM126.078 72.342H128.346L127.226 68.198H127.198L126.078 72.342Z" fill="#4C3D3D"/>
<path d="M115.636 66.14V70.522H115.664L118.758 66.14H121.516L117.876 71.04L121.656 76.36H118.898L115.664 71.558H115.636V76.36H113.256V66.14H115.636Z" fill="#4C3D3D"/>
<path d="M107.105 68.058V70.144H110.983V71.95H107.105V74.442H111.263V76.36H104.725V66.14H111.263V68.058H107.105Z" fill="#4C3D3D"/>
<path d="M102.952 66.14V68.114H100.11V76.36H97.6735V68.114H94.8315V66.14H102.952Z" fill="#4C3D3D"/>
<path d="M85.2877 67.414C86.2304 66.4713 87.4904 66 89.0677 66C90.645 66 91.9004 66.4713 92.8337 67.414C93.7764 68.3567 94.2477 69.6353 94.2477 71.25C94.2477 72.8647 93.7764 74.1433 92.8337 75.086C91.9004 76.0287 90.645 76.5 89.0677 76.5C87.4904 76.5 86.2304 76.0287 85.2877 75.086C84.3544 74.1433 83.8877 72.8647 83.8877 71.25C83.8877 69.6353 84.3544 68.3567 85.2877 67.414ZM87.0377 73.7C87.523 74.26 88.1997 74.54 89.0677 74.54C89.9357 74.54 90.6077 74.26 91.0837 73.7C91.569 73.14 91.8117 72.3233 91.8117 71.25C91.8117 70.1767 91.569 69.36 91.0837 68.8C90.6077 68.24 89.9357 67.96 89.0677 67.96C88.1997 67.96 87.523 68.24 87.0377 68.8C86.5617 69.36 86.3237 70.1767 86.3237 71.25C86.3237 72.3233 86.5617 73.14 87.0377 73.7Z" fill="#4C3D3D"/>
<path d="M79.5596 76.36V66.14H82.1776V76.36H79.5596Z" fill="#4C3D3D"/>
<path d="M73.2547 66.14V74.386H77.5667V76.36H70.8047V66.14H73.2547Z" fill="#4C3D3D"/>
<path d="M64.3243 70.186H64.7863C66.149 70.186 66.8303 69.78 66.8303 68.968C66.8303 68.1933 66.2563 67.806 65.1083 67.806C64.819 67.806 64.5577 67.834 64.3243 67.89V70.186ZM64.3243 71.894V74.61C64.595 74.666 64.875 74.694 65.1643 74.694C65.827 74.694 66.3123 74.5727 66.6203 74.33C66.9283 74.078 67.0823 73.6953 67.0823 73.182C67.0823 72.3233 66.3777 71.894 64.9683 71.894H64.3243ZM69.3083 73.42C69.3083 74.4653 68.9677 75.24 68.2863 75.744C67.605 76.248 66.5317 76.5 65.0663 76.5C63.9837 76.5 62.957 76.43 61.9863 76.29V66.21C62.9103 66.07 63.8903 66 64.9263 66C67.633 66 68.9863 66.8727 68.9863 68.618C68.9863 69.206 68.795 69.71 68.4123 70.13C68.0297 70.55 67.521 70.8113 66.8863 70.914V70.942C67.633 71.0353 68.221 71.3107 68.6503 71.768C69.089 72.2253 69.3083 72.776 69.3083 73.42Z" fill="#4C3D3D"/>
<path d="M57.0283 76.36V66.14H59.6463V76.36H57.0283Z" fill="#4C3D3D"/>
<path d="M50.338 70.186H50.8C52.1627 70.186 52.844 69.78 52.844 68.968C52.844 68.1933 52.27 67.806 51.122 67.806C50.8327 67.806 50.5713 67.834 50.338 67.89V70.186ZM50.338 71.894V74.61C50.6087 74.666 50.8887 74.694 51.178 74.694C51.8407 74.694 52.326 74.5727 52.634 74.33C52.942 74.078 53.096 73.6953 53.096 73.182C53.096 72.3233 52.3913 71.894 50.982 71.894H50.338ZM55.322 73.42C55.322 74.4653 54.9813 75.24 54.3 75.744C53.6187 76.248 52.5453 76.5 51.08 76.5C49.9973 76.5 48.9707 76.43 48 76.29V66.21C48.924 66.07 49.904 66 50.94 66C53.6467 66 55 66.8727 55 68.618C55 69.206 54.8087 69.71 54.426 70.13C54.0433 70.55 53.5347 70.8113 52.9 70.914V70.942C53.6467 71.0353 54.2347 71.3107 54.664 71.768C55.1027 72.2253 55.322 72.776 55.322 73.42Z" fill="#4C3D3D"/>
</svg>
