<svg width="49" height="48" viewBox="0 0 49 48" fill="none" xmlns="http://www.w3.org/2000/svg">
<path d="M38.5 11H10.5C9.43913 11 8.42172 11.4214 7.67157 12.1716C6.92143 12.9217 6.5 13.9391 6.5 15L6.5 24H42.5V15C42.5 13.9391 42.0786 12.9217 41.3284 12.1716C40.5783 11.4214 39.5609 11 38.5 11Z" fill="#005BBB"/>
<path d="M42.5 33C42.5 34.0609 42.0786 35.0783 41.3284 35.8284C40.5783 36.5786 39.5609 37 38.5 37H10.5C9.43913 37 8.42172 36.5786 7.67157 35.8284C6.92143 35.0783 6.5 34.0609 6.5 33V24H42.5V33Z" fill="#FFD95A"/>
</svg>
