<svg width="19" height="18" viewBox="0 0 19 18" fill="none" xmlns="http://www.w3.org/2000/svg">
<path fill-rule="evenodd" clip-rule="evenodd" d="M0.5 9C0.5 4.02944 4.52944 0 9.5 0C14.4706 0 18.5 4.02944 18.5 9C18.5 11.4807 17.4951 13.7286 15.8724 15.3555L15.1644 14.6493L15.8724 15.3555C14.2442 16.9881 11.9893 18 9.5 18C4.52944 18 0.5 13.9706 0.5 9ZM9.5 2C5.634 2 2.5 5.134 2.5 9C2.5 12.866 5.634 16 9.5 16C11.4367 16 13.188 15.2149 14.4563 13.9431L14.4564 13.9431C15.7203 12.6758 16.5 10.9299 16.5 9C16.5 5.134 13.366 2 9.5 2Z" fill="black"/>
</svg>
