<svg width="180" height="61" viewBox="0 0 180 61" fill="none" xmlns="http://www.w3.org/2000/svg">
<path d="M94.0347 60.3481L93.8782 60.6206C127.139 53.7395 164.408 57.7644 180 60.0318L153.011 45.4874C137.325 46.8408 114.595 49.0905 94.0347 60.3481Z" fill="#4C3D3D"/>
<path d="M140.362 30.9958L139.767 31.1979C128.078 35.0911 112.549 40.2673 98.0213 53.5813C97.4508 54.4543 96.9046 55.3419 96.3828 56.2441C117.068 46.1026 139.172 44.1956 154.19 42.8949C162.738 42.1655 169.73 41.5591 171.776 39.7839L140.362 30.9958Z" fill="#C07F00"/>
<path d="M158.584 16.9875H137.075C134.539 19.0791 131.7 21.0476 128.663 23.1392C121.18 28.333 112.413 34.4144 103.751 45.4611C116.275 36.3741 128.799 32.1822 138.703 28.8866C149.286 25.3977 156.518 22.9898 158.584 16.9875Z" fill="#FFD95A"/>
<path d="M92.8032 51.4019V56.8417C104.283 36.9366 116.682 28.3154 126.816 21.2937C135.812 15.0541 142.47 10.4403 145.1 0.395508L108.865 11.6267C107.658 18.3387 104.637 24.7277 100.036 30.3015C96.122 35.4074 92.8032 39.8191 92.8032 51.4019Z" fill="#FFA259"/>
<path d="M85.9651 59.8695L86.1217 60.142C52.8607 53.2521 15.5921 57.2858 0 59.5532L27.0096 45C42.6956 46.3622 65.4262 48.6119 85.9651 59.8695Z" fill="#4C3D3D"/>
<path d="M40.715 30.6003L41.3099 30.7936C52.9987 34.6956 68.5282 39.8718 83.0558 53.177C83.6089 54.0558 84.162 54.9346 84.7151 55.875C64.0092 45.6983 41.9361 43.8264 26.8867 42.5258C18.3392 41.7964 11.3468 41.19 9.30127 39.4148L40.715 30.6003Z" fill="#C07F00"/>
<path d="M22.4927 16.592H44.0022C46.5383 18.6836 49.377 20.6433 52.414 22.7437C59.897 27.9726 68.6636 34.054 77.3363 45.1007C64.8125 36.0313 52.2888 31.8218 42.3741 28.5263C31.7916 25.0022 24.5591 22.5855 22.4927 16.592Z" fill="#FFD95A"/>
<path d="M88.2739 50.9712V56.4111C76.8147 36.5323 64.3953 27.9199 54.2615 20.8894C45.2653 14.6586 38.6172 10.0448 35.9768 0L72.2122 11.2312C73.4236 17.934 76.4441 24.3136 81.0415 29.8797C84.9238 35.0119 88.2739 39.4236 88.2739 50.9712Z" fill="#FFA259"/>
</svg>
