<svg width="20" height="20" viewBox="0 0 20 20" fill="none" xmlns="http://www.w3.org/2000/svg">
<path d="M10 14C12.2091 14 14 12.2091 14 10C14 7.79086 12.2091 6 10 6C7.79086 6 6 7.79086 6 10C6 12.2091 7.79086 14 10 14Z" stroke="black" stroke-width="2" stroke-linecap="round" stroke-linejoin="round"/>
<path d="M1 14V6C1 3.23858 3.23858 1 6 1H14C16.7614 1 19 3.23858 19 6V14C19 16.7614 16.7614 19 14 19H6C3.23858 19 1 16.7614 1 14Z" stroke="black" stroke-width="2"/>
<path d="M15.5 4.51013L15.51 4.49902" stroke="black" stroke-width="2" stroke-linecap="round" stroke-linejoin="round"/>
</svg>
