<svg width="48" height="48" viewBox="0 0 48 48" fill="none" xmlns="http://www.w3.org/2000/svg">
<path d="M24 28C26.2091 28 28 26.2091 28 24C28 21.7909 26.2091 20 24 20C21.7909 20 20 21.7909 20 24C20 26.2091 21.7909 28 24 28Z" stroke="black" stroke-width="2" stroke-linecap="round" stroke-linejoin="round"/>
<path d="M15 28V20C15 17.2386 17.2386 15 20 15H28C30.7614 15 33 17.2386 33 20V28C33 30.7614 30.7614 33 28 33H20C17.2386 33 15 30.7614 15 28Z" stroke="black" stroke-width="2"/>
<path d="M29.5 18.51L29.51 18.4989" stroke="black" stroke-width="2" stroke-linecap="round" stroke-linejoin="round"/>
</svg>
