<svg width="32" height="32" viewBox="0 0 32 32" fill="none" xmlns="http://www.w3.org/2000/svg">
<path d="M16 32C24.8366 32 32 24.8366 32 16C32 7.16344 24.8366 0 16 0C7.16344 0 0 7.16344 0 16C0 24.8366 7.16344 32 16 32Z" fill="#3C5A99"/>
<path d="M17.2453 24.0008V16.7133H19.7016L20.0703 13.8602H17.2453V12.0445C17.2453 11.2195 17.4734 10.6602 18.6547 10.6602H20.1516V8.11641C19.8922 8.08203 18.9984 8.00391 17.9578 8.00391C15.7859 8.00391 14.2984 9.32891 14.2984 11.7633V13.8633H11.8516V16.7164H14.2984V24.0008H17.2453Z" fill="white"/>
</svg>
