<svg width="20" height="20" viewBox="0 0 20 20" fill="none" xmlns="http://www.w3.org/2000/svg">
<path fill-rule="evenodd" clip-rule="evenodd" d="M14.2929 14.2929C14.6834 13.9024 15.3166 13.9024 15.7071 14.2929L19.7071 18.2929C20.0976 18.6834 20.0976 19.3166 19.7071 19.7071C19.3166 20.0976 18.6834 20.0976 18.2929 19.7071L14.2929 15.7071C13.9024 15.3166 13.9024 14.6834 14.2929 14.2929Z" fill="black"/>
<path fill-rule="evenodd" clip-rule="evenodd" d="M0 9C0 4.02944 4.02944 0 9 0C13.9706 0 18 4.02944 18 9C18 11.4807 16.9951 13.7286 15.3724 15.3555L14.6644 14.6493L15.3724 15.3555C13.7442 16.9881 11.4893 18 9 18C4.02944 18 0 13.9706 0 9ZM9 2C5.134 2 2 5.134 2 9C2 12.866 5.134 16 9 16C10.9367 16 12.688 15.2149 13.9563 13.9431L13.9564 13.9431C15.2203 12.6758 16 10.9299 16 9C16 5.134 12.866 2 9 2Z" fill="black"/>
</svg>
