<svg width="20" height="12" viewBox="0 0 20 12" fill="none" xmlns="http://www.w3.org/2000/svg">
<path fill-rule="evenodd" clip-rule="evenodd" d="M18.0881 7.41036C14.8419 0.196545 5.15814 0.196545 1.91192 7.41036C1.68529 7.914 1.09328 8.13856 0.589638 7.91192C0.0859979 7.68528 -0.138557 7.09328 0.0880813 6.58964C4.04186 -2.19655 15.9581 -2.19655 19.9119 6.58964C20.1386 7.09328 19.914 7.68528 19.4104 7.91192C18.9067 8.13856 18.3147 7.914 18.0881 7.41036Z" fill="#767676"/>
<path fill-rule="evenodd" clip-rule="evenodd" d="M10 6C8.89538 6 8 6.89538 8 8C8 9.10462 8.89538 10 10 10C11.1046 10 12 9.10462 12 8C12 6.89538 11.1046 6 10 6ZM6 8C6 5.79082 7.79082 4 10 4C12.2092 4 14 5.79082 14 8C14 10.2092 12.2092 12 10 12C7.79082 12 6 10.2092 6 8Z" fill="#767676"/>
</svg>
