<svg width="24" height="24" viewBox="0 0 24 24" fill="none" xmlns="http://www.w3.org/2000/svg">
<path fill-rule="evenodd" clip-rule="evenodd" d="M16.4358 11.7954C16.8821 11.4702 17.5077 11.5683 17.8329 12.0146L20.3081 15.4108C20.6334 15.8571 20.5353 16.4826 20.089 16.8079C19.6427 17.1332 19.0172 17.0351 18.6919 16.5888L16.2167 13.1926C15.8914 12.7462 15.9895 12.1207 16.4358 11.7954Z" fill="#767676"/>
<path fill-rule="evenodd" clip-rule="evenodd" d="M12 13C12.5523 13 13 13.4477 13 14V17.5C13 18.0523 12.5523 18.5 12 18.5C11.4477 18.5 11 18.0523 11 17.5V14C11 13.4477 11.4477 13 12 13Z" fill="#767676"/>
<path fill-rule="evenodd" clip-rule="evenodd" d="M7.55795 11.8052C8.00427 12.1305 8.10239 12.756 7.7771 13.2023L5.30815 16.5899C4.98286 17.0363 4.35734 17.1344 3.91102 16.8091C3.4647 16.4838 3.36658 15.8583 3.69187 15.412L6.16082 12.0244C6.48611 11.578 7.11162 11.4799 7.55795 11.8052Z" fill="#767676"/>
<path fill-rule="evenodd" clip-rule="evenodd" d="M2.58964 7.08833C3.09328 6.86169 3.68529 7.08624 3.91192 7.58988C7.15814 14.8037 16.8419 14.8037 20.0881 7.58988C20.3147 7.08624 20.9067 6.86169 21.4104 7.08833C21.914 7.31496 22.1386 7.90697 21.9119 8.41061C17.9581 17.1968 6.04186 17.1968 2.08808 8.41061C1.86144 7.90697 2.086 7.31496 2.58964 7.08833Z" fill="#767676"/>
</svg>
